<svg width="32" height="32" viewBox="0 0 32 32" fill="none" xmlns="http://www.w3.org/2000/svg">
<rect width="32" height="32" rx="7" fill="#FEF0F0"/>
<path d="M22.5851 12.2227C22.3616 11.7094 22.0395 11.2442 21.6366 10.8533C21.2335 10.4612 20.7581 10.1495 20.2365 9.93536C19.6955 9.71241 19.1153 9.59828 18.5296 9.59962C17.7078 9.59962 16.9061 9.8229 16.2093 10.2446C16.0426 10.3455 15.8843 10.4563 15.7343 10.5771C15.5843 10.4563 15.4259 10.3455 15.2592 10.2446C14.5625 9.8229 13.7607 9.59962 12.939 9.59962C12.3472 9.59962 11.7738 9.71209 11.2321 9.93536C10.7087 10.1504 10.237 10.4597 9.83193 10.8533C9.42854 11.2438 9.10631 11.7091 8.88349 12.2227C8.65179 12.7569 8.53345 13.3242 8.53345 13.908C8.53345 14.4588 8.64679 15.0327 8.87182 15.6165C9.06017 16.1044 9.33021 16.6105 9.67524 17.1216C10.222 17.9303 10.9737 18.7738 11.9072 19.6289C13.454 21.0463 14.9859 22.0254 15.0509 22.0651L15.4459 22.3165C15.6209 22.4273 15.846 22.4273 16.021 22.3165L16.416 22.0651C16.481 22.0238 18.0112 21.0463 19.5597 19.6289C20.4932 18.7738 21.2449 17.9303 21.7916 17.1216C22.1367 16.6105 22.4084 16.1044 22.5951 15.6165C22.8201 15.0327 22.9334 14.4588 22.9334 13.908C22.9351 13.3242 22.8168 12.7569 22.5851 12.2227Z" fill="#FF8585"/>
</svg>
